<?xml version="1.0" encoding="UTF-8" standalone="no"?>
<!DOCTYPE svg PUBLIC "-//W3C//DTD SVG 1.1//EN"
 "http://www.w3.org/Graphics/SVG/1.1/DTD/svg11.dtd">
<!-- Generated by graphviz version 13.1.2 (20250808.2320)
 -->
<!-- Title: Endurance Pools CDK Stack Pages: 1 -->
<svg width="931pt" height="540pt"
 viewBox="0.00 0.00 931.00 540.00" xmlns="http://www.w3.org/2000/svg" xmlns:xlink="http://www.w3.org/1999/xlink">
<g id="graph0" class="graph" transform="scale(0.213316 0.213316) rotate(0) translate(25.2 2506.25)">
<title>Endurance Pools CDK Stack</title>
<polygon fill="white" stroke="none" points="-25.2,25.2 -25.2,-2506.25 4337.73,-2506.25 4337.73,25.2 -25.2,25.2"/>
<text xml:space="preserve" text-anchor="middle" x="2156.27" y="-18.95" font-family="Sans-Serif" font-size="34.00" fill="#2d3436">Endurance Pools CDK Stack</text>
<g id="clust1" class="cluster">
<title>cluster_AWS Account</title>
<path fill="#e5f5fd" stroke="#aeb6be" d="M909.55,-199.65C909.55,-199.65 4264.6,-199.65 4264.6,-199.65 4270.6,-199.65 4276.6,-205.65 4276.6,-211.65 4276.6,-211.65 4276.6,-2360.65 4276.6,-2360.65 4276.6,-2366.65 4270.6,-2372.65 4264.6,-2372.65 4264.6,-2372.65 909.55,-2372.65 909.55,-2372.65 903.55,-2372.65 897.55,-2366.65 897.55,-2360.65 897.55,-2360.65 897.55,-211.65 897.55,-211.65 897.55,-205.65 903.55,-199.65 909.55,-199.65"/>
<text xml:space="preserve" text-anchor="middle" x="985.42" y="-2343.95" font-family="Sans-Serif" font-size="26.00" fill="#2d3436">AWS Account</text>
</g>
<g id="clust2" class="cluster">
<title>cluster_Deployment Region</title>
<path fill="#ebf3e7" stroke="#aeb6be" d="M945.48,-207.65C945.48,-207.65 4228.66,-207.65 4228.66,-207.65 4234.66,-207.65 4240.66,-213.65 4240.66,-219.65 4240.66,-219.65 4240.66,-2307.65 4240.66,-2307.65 4240.66,-2313.65 4234.66,-2319.65 4228.66,-2319.65 4228.66,-2319.65 945.48,-2319.65 945.48,-2319.65 939.48,-2319.65 933.48,-2313.65 933.48,-2307.65 933.48,-2307.65 933.48,-219.65 933.48,-219.65 933.48,-213.65 939.48,-207.65 945.48,-207.65"/>
<text xml:space="preserve" text-anchor="middle" x="1062.23" y="-2290.95" font-family="Sans-Serif" font-size="26.00" fill="#2d3436">Deployment Region</text>
</g>
<g id="clust3" class="cluster">
<title>cluster_Endurance Pools Stack</title>
<path fill="#ece8f6" stroke="#aeb6be" d="M981.42,-215.65C981.42,-215.65 4192.72,-215.65 4192.72,-215.65 4198.72,-215.65 4204.72,-221.65 4204.72,-227.65 4204.72,-227.65 4204.72,-2254.65 4204.72,-2254.65 4204.72,-2260.65 4198.72,-2266.65 4192.72,-2266.65 4192.72,-2266.65 981.42,-2266.65 981.42,-2266.65 975.42,-2266.65 969.42,-2260.65 969.42,-2254.65 969.42,-2254.65 969.42,-227.65 969.42,-227.65 969.42,-221.65 975.42,-215.65 981.42,-215.65"/>
<text xml:space="preserve" text-anchor="middle" x="1115.05" y="-2237.95" font-family="Sans-Serif" font-size="26.00" fill="#2d3436">Endurance Pools Stack</text>
</g>
<g id="clust4" class="cluster">
<title>cluster_GraphQL Resolvers</title>
<path fill="#fdf7e3" stroke="#aeb6be" d="M1717.25,-1811.65C1717.25,-1811.65 3420.96,-1811.65 3420.96,-1811.65 3426.96,-1811.65 3432.96,-1817.65 3432.96,-1823.65 3432.96,-1823.65 3432.96,-2201.65 3432.96,-2201.65 3432.96,-2207.65 3426.96,-2213.65 3420.96,-2213.65 3420.96,-2213.65 1717.25,-2213.65 1717.25,-2213.65 1711.25,-2213.65 1705.25,-2207.65 1705.25,-2201.65 1705.25,-2201.65 1705.25,-1823.65 1705.25,-1823.65 1705.25,-1817.65 1711.25,-1811.65 1717.25,-1811.65"/>
<text xml:space="preserve" text-anchor="middle" x="1830.25" y="-2184.95" font-family="Sans-Serif" font-size="26.00" fill="#2d3436">GraphQL Resolvers</text>
</g>
<g id="clust5" class="cluster">
<title>cluster_Payment Handlers</title>
<path fill="#fdf7e3" stroke="#aeb6be" d="M1717.25,-384.65C1717.25,-384.65 3420.96,-384.65 3420.96,-384.65 3426.96,-384.65 3432.96,-390.65 3432.96,-396.65 3432.96,-396.65 3432.96,-774.65 3432.96,-774.65 3432.96,-780.65 3426.96,-786.65 3420.96,-786.65 3420.96,-786.65 1717.25,-786.65 1717.25,-786.65 1711.25,-786.65 1705.25,-780.65 1705.25,-774.65 1705.25,-774.65 1705.25,-396.65 1705.25,-396.65 1705.25,-390.65 1711.25,-384.65 1717.25,-384.65"/>
<text xml:space="preserve" text-anchor="middle" x="1825.75" y="-757.95" font-family="Sans-Serif" font-size="26.00" fill="#2d3436">Payment Handlers</text>
</g>
<g id="clust6" class="cluster">
<title>cluster_DynamoDB Tables</title>
<path fill="#fdf7e3" stroke="#aeb6be" d="M2920.26,-991.65C2920.26,-991.65 4156.78,-991.65 4156.78,-991.65 4162.78,-991.65 4168.78,-997.65 4168.78,-1003.65 4168.78,-1003.65 4168.78,-1791.65 4168.78,-1791.65 4168.78,-1797.65 4162.78,-1803.65 4156.78,-1803.65 4156.78,-1803.65 2920.26,-1803.65 2920.26,-1803.65 2914.26,-1803.65 2908.26,-1797.65 2908.26,-1791.65 2908.26,-1791.65 2908.26,-1003.65 2908.26,-1003.65 2908.26,-997.65 2914.26,-991.65 2920.26,-991.65"/>
<text xml:space="preserve" text-anchor="middle" x="3027.26" y="-1774.95" font-family="Sans-Serif" font-size="26.00" fill="#2d3436">DynamoDB Tables</text>
</g>
<!-- b196f7f66811422ba4edc5d19a6e5975 -->
<g id="node1" class="node">
<title>b196f7f66811422ba4edc5d19a6e5975</title>
<image xlink:href="/home/lukemccrae/.local/lib/python3.14/site-packages/resources/aws/general/client.png" width="100.8px" height="100.8px" preserveAspectRatio="xMinYMin meet" x="176.196" y="-1938.05"/>
</g>
<!-- 5cd7bcdc135d4e4fbec78d64de824458 -->
<g id="node2" class="node">
<title>5cd7bcdc135d4e4fbec78d64de824458</title>
<text xml:space="preserve" text-anchor="middle" x="1231.6" y="-2434.25" font-family="Sans-Serif" font-size="30.00" fill="#2d3436">NextJS Web Client</text>
<text xml:space="preserve" text-anchor="middle" x="1231.6" y="-2393" font-family="Sans-Serif" font-size="30.00" fill="#2d3436">(Race Purse UI)</text>
</g>
<!-- b196f7f66811422ba4edc5d19a6e5975&#45;&gt;5cd7bcdc135d4e4fbec78d64de824458 -->
<!-- 8c69e41d921949d882029e1d09659ad0 -->
<g id="node5" class="node">
<title>8c69e41d921949d882029e1d09659ad0</title>
<image xlink:href="/home/lukemccrae/.local/lib/python3.14/site-packages/resources/aws/integration/appsync.png" width="100.8px" height="100.8px" preserveAspectRatio="xMinYMin meet" x="1181.2" y="-1938.05"/>
</g>
<!-- b196f7f66811422ba4edc5d19a6e5975&#45;&gt;8c69e41d921949d882029e1d09659ad0 -->
<g id="edge14" class="edge">
<title>b196f7f66811422ba4edc5d19a6e5975&#45;&gt;8c69e41d921949d882029e1d09659ad0</title>
<path fill="none" stroke="#7b8894" d="M276.99,-1887.65C444.04,-1887.65 987.57,-1887.65 1170.15,-1887.65"/>
<polygon fill="#7b8894" stroke="#7b8894" points="1169.88,-1891.15 1179.88,-1887.65 1169.88,-1884.15 1169.88,-1891.15"/>
<text xml:space="preserve" text-anchor="middle" x="726.6" y="-1894.05" font-family="Sans-Serif" font-size="13.00" fill="#2d3436">GraphQL</text>
</g>
<!-- c244fac82ba745d1b62ae0d5bd756b39 -->
<g id="node7" class="node">
<title>c244fac82ba745d1b62ae0d5bd756b39</title>
<image xlink:href="/home/lukemccrae/.local/lib/python3.14/site-packages/resources/aws/network/api-gateway.png" width="100.8px" height="100.8px" preserveAspectRatio="xMinYMin meet" x="1181.2" y="-511.05"/>
</g>
<!-- b196f7f66811422ba4edc5d19a6e5975&#45;&gt;c244fac82ba745d1b62ae0d5bd756b39 -->
<g id="edge25" class="edge">
<title>b196f7f66811422ba4edc5d19a6e5975&#45;&gt;c244fac82ba745d1b62ae0d5bd756b39</title>
<path fill="none" stroke="#7b8894" d="M275.63,-1819.3C442.96,-1581.24 999.59,-789.31 1176.28,-537.93"/>
<polygon fill="#7b8894" stroke="#7b8894" points="1178.9,-540.29 1181.78,-530.1 1173.17,-536.27 1178.9,-540.29"/>
<text xml:space="preserve" text-anchor="middle" x="726.6" y="-1223.34" font-family="Sans-Serif" font-size="13.00" fill="#2d3436">Payments</text>
</g>
<!-- 582b025e4ec943b09bee7dacdf427607 -->
<g id="node3" class="node">
<title>582b025e4ec943b09bee7dacdf427607</title>
<image xlink:href="/home/lukemccrae/.local/lib/python3.14/site-packages/resources/aws/general/user.png" width="100.8px" height="100.8px" preserveAspectRatio="xMinYMin meet" x="3120.2" y="-174.05"/>
</g>
<!-- 19c787ab96de47f1a42162c5cef2e700 -->
<g id="node4" class="node">
<title>19c787ab96de47f1a42162c5cef2e700</title>
<text xml:space="preserve" text-anchor="middle" x="3906.6" y="-127.25" font-family="Sans-Serif" font-size="30.00" fill="#2d3436">Stripe</text>
<text xml:space="preserve" text-anchor="middle" x="3906.6" y="-86" font-family="Sans-Serif" font-size="30.00" fill="#2d3436">(External)</text>
</g>
<!-- 582b025e4ec943b09bee7dacdf427607&#45;&gt;19c787ab96de47f1a42162c5cef2e700 -->
<!-- 582b025e4ec943b09bee7dacdf427607&#45;&gt;c244fac82ba745d1b62ae0d5bd756b39 -->
<g id="edge29" class="edge">
<title>582b025e4ec943b09bee7dacdf427607&#45;&gt;c244fac82ba745d1b62ae0d5bd756b39</title>
<path fill="none" stroke="#7b8894" d="M3120.4,-119.13C2950.03,-104.81 2370.4,-67.26 1909.2,-170.9 1668.67,-224.95 1406.4,-362.1 1291.77,-426.39"/>
<polygon fill="#7b8894" stroke="#7b8894" points="1290.11,-423.31 1283.12,-431.27 1293.55,-429.41 1290.11,-423.31"/>
<text xml:space="preserve" text-anchor="middle" x="1967.6" y="-177.3" font-family="Sans-Serif" font-size="13.00" fill="#2d3436">Webhook</text>
</g>
<!-- f8419b521e2842c7ac3cc7e70e60efe3 -->
<g id="node6" class="node">
<title>f8419b521e2842c7ac3cc7e70e60efe3</title>
<text xml:space="preserve" text-anchor="middle" x="1967.6" y="-1704.25" font-family="Sans-Serif" font-size="30.00" fill="#2d3436">AWS AppSync</text>
<text xml:space="preserve" text-anchor="middle" x="1967.6" y="-1663" font-family="Sans-Serif" font-size="30.00" fill="#2d3436">GraphQL API</text>
</g>
<!-- 8c69e41d921949d882029e1d09659ad0&#45;&gt;f8419b521e2842c7ac3cc7e70e60efe3 -->
<!-- adb881c51a5f46a2b353c55df1f4e7da -->
<g id="node9" class="node">
<title>adb881c51a5f46a2b353c55df1f4e7da</title>
<image xlink:href="/home/lukemccrae/.local/lib/python3.14/site-packages/resources/aws/compute/lambda.png" width="100.8px" height="100.8px" preserveAspectRatio="xMinYMin meet" x="1917.2" y="-1938.05"/>
</g>
<!-- 8c69e41d921949d882029e1d09659ad0&#45;&gt;adb881c51a5f46a2b353c55df1f4e7da -->
<g id="edge15" class="edge">
<title>8c69e41d921949d882029e1d09659ad0&#45;&gt;adb881c51a5f46a2b353c55df1f4e7da</title>
<path fill="none" stroke="#7b8894" d="M1281.9,-1887.65C1411.95,-1887.65 1764.07,-1887.65 1906.04,-1887.65"/>
<polygon fill="#7b8894" stroke="#7b8894" points="1906,-1891.15 1916,-1887.65 1906,-1884.15 1906,-1891.15"/>
</g>
<!-- f95e6f314eb9413bacace6ff40938992 -->
<g id="node11" class="node">
<title>f95e6f314eb9413bacace6ff40938992</title>
<image xlink:href="/home/lukemccrae/.local/lib/python3.14/site-packages/resources/aws/compute/lambda.png" width="100.8px" height="100.8px" preserveAspectRatio="xMinYMin meet" x="1917.2" y="-2143.05"/>
</g>
<!-- 8c69e41d921949d882029e1d09659ad0&#45;&gt;f95e6f314eb9413bacace6ff40938992 -->
<g id="edge16" class="edge">
<title>8c69e41d921949d882029e1d09659ad0&#45;&gt;f95e6f314eb9413bacace6ff40938992</title>
<path fill="none" stroke="#7b8894" d="M1281.9,-1901.42C1412.08,-1937.78 1764.78,-2036.28 1906.47,-2075.86"/>
<polygon fill="#7b8894" stroke="#7b8894" points="1905.48,-2079.21 1916.05,-2078.53 1907.36,-2072.47 1905.48,-2079.21"/>
</g>
<!-- 0e478574265e49838d5ddb49aaccf452 -->
<g id="node8" class="node">
<title>0e478574265e49838d5ddb49aaccf452</title>
<text xml:space="preserve" text-anchor="middle" x="1967.6" y="-277.25" font-family="Sans-Serif" font-size="30.00" fill="#2d3436">API Gateway</text>
<text xml:space="preserve" text-anchor="middle" x="1967.6" y="-236" font-family="Sans-Serif" font-size="30.00" fill="#2d3436">(Donation API)</text>
</g>
<!-- c244fac82ba745d1b62ae0d5bd756b39&#45;&gt;0e478574265e49838d5ddb49aaccf452 -->
<!-- 6ac653ab5861422493cf05305f227f9a -->
<g id="node13" class="node">
<title>6ac653ab5861422493cf05305f227f9a</title>
<image xlink:href="/home/lukemccrae/.local/lib/python3.14/site-packages/resources/aws/compute/lambda.png" width="100.8px" height="100.8px" preserveAspectRatio="xMinYMin meet" x="1917.2" y="-511.05"/>
</g>
<!-- c244fac82ba745d1b62ae0d5bd756b39&#45;&gt;6ac653ab5861422493cf05305f227f9a -->
<g id="edge26" class="edge">
<title>c244fac82ba745d1b62ae0d5bd756b39&#45;&gt;6ac653ab5861422493cf05305f227f9a</title>
<path fill="none" stroke="#7b8894" d="M1281.9,-460.65C1411.95,-460.65 1764.07,-460.65 1906.04,-460.65"/>
<polygon fill="#7b8894" stroke="#7b8894" points="1906,-464.15 1916,-460.65 1906,-457.15 1906,-464.15"/>
</g>
<!-- 610087d1d331413e9d8152a7775bf9ac -->
<g id="node15" class="node">
<title>610087d1d331413e9d8152a7775bf9ac</title>
<image xlink:href="/home/lukemccrae/.local/lib/python3.14/site-packages/resources/aws/compute/lambda.png" width="100.8px" height="100.8px" preserveAspectRatio="xMinYMin meet" x="1917.2" y="-716.05"/>
</g>
<!-- c244fac82ba745d1b62ae0d5bd756b39&#45;&gt;610087d1d331413e9d8152a7775bf9ac -->
<g id="edge27" class="edge">
<title>c244fac82ba745d1b62ae0d5bd756b39&#45;&gt;610087d1d331413e9d8152a7775bf9ac</title>
<path fill="none" stroke="#7b8894" d="M1281.9,-474.42C1412.08,-510.78 1764.78,-609.28 1906.47,-648.86"/>
<polygon fill="#7b8894" stroke="#7b8894" points="1905.48,-652.21 1916.05,-651.53 1907.36,-645.47 1905.48,-652.21"/>
</g>
<!-- 779f6123b9a045b697ce811d89e9ae60 -->
<g id="node10" class="node">
<title>779f6123b9a045b697ce811d89e9ae60</title>
<text xml:space="preserve" text-anchor="middle" x="3170.6" y="-1891.25" font-family="Sans-Serif" font-size="30.00" fill="#2d3436">Query</text>
<text xml:space="preserve" text-anchor="middle" x="3170.6" y="-1850" font-family="Sans-Serif" font-size="30.00" fill="#2d3436">Resolver</text>
</g>
<!-- adb881c51a5f46a2b353c55df1f4e7da&#45;&gt;779f6123b9a045b697ce811d89e9ae60 -->
<!-- fb83c8def85547c4a83c692b57271b82 -->
<g id="node17" class="node">
<title>fb83c8def85547c4a83c692b57271b82</title>
<image xlink:href="/home/lukemccrae/.local/lib/python3.14/site-packages/resources/aws/database/dynamodb-table.png" width="100.8px" height="100.8px" preserveAspectRatio="xMinYMin meet" x="3120.2" y="-1118.05"/>
</g>
<!-- adb881c51a5f46a2b353c55df1f4e7da&#45;&gt;fb83c8def85547c4a83c692b57271b82 -->
<g id="edge17" class="edge">
<title>adb881c51a5f46a2b353c55df1f4e7da&#45;&gt;fb83c8def85547c4a83c692b57271b82</title>
<path fill="none" stroke="#7b8894" d="M2017.92,-1853.98C2209.42,-1723.22 2903.35,-1249.43 3110.69,-1107.87"/>
<polygon fill="#7b8894" stroke="#7b8894" points="3112.66,-1110.76 3118.95,-1102.23 3108.71,-1104.98 3112.66,-1110.76"/>
<text xml:space="preserve" text-anchor="middle" x="2569.6" y="-1508.64" font-family="Sans-Serif" font-size="13.00" fill="#2d3436">Read</text>
</g>
<!-- 176519a920fa40558cc3b8827ee2e728 -->
<g id="node19" class="node">
<title>176519a920fa40558cc3b8827ee2e728</title>
<image xlink:href="/home/lukemccrae/.local/lib/python3.14/site-packages/resources/aws/database/dynamodb-table.png" width="100.8px" height="100.8px" preserveAspectRatio="xMinYMin meet" x="3120.2" y="-1733.05"/>
</g>
<!-- adb881c51a5f46a2b353c55df1f4e7da&#45;&gt;176519a920fa40558cc3b8827ee2e728 -->
<g id="edge18" class="edge">
<title>adb881c51a5f46a2b353c55df1f4e7da&#45;&gt;176519a920fa40558cc3b8827ee2e728</title>
<path fill="none" stroke="#7b8894" d="M2017.84,-1867.7C2112.63,-1830.33 2327.84,-1750.53 2517.1,-1716.65 2732.19,-1678.15 2993.04,-1678.34 3108.99,-1680.79"/>
<polygon fill="#7b8894" stroke="#7b8894" points="3108.83,-1684.29 3118.9,-1681.02 3108.99,-1677.29 3108.83,-1684.29"/>
</g>
<!-- 809eb6f08d5145e3b1929b232cd2b3f7 -->
<g id="node21" class="node">
<title>809eb6f08d5145e3b1929b232cd2b3f7</title>
<image xlink:href="/home/lukemccrae/.local/lib/python3.14/site-packages/resources/aws/database/dynamodb-table.png" width="100.8px" height="100.8px" preserveAspectRatio="xMinYMin meet" x="3120.2" y="-1323.05"/>
</g>
<!-- adb881c51a5f46a2b353c55df1f4e7da&#45;&gt;809eb6f08d5145e3b1929b232cd2b3f7 -->
<g id="edge19" class="edge">
<title>adb881c51a5f46a2b353c55df1f4e7da&#45;&gt;809eb6f08d5145e3b1929b232cd2b3f7</title>
<path fill="none" stroke="#7b8894" d="M2017.92,-1862.39C2209.23,-1764.43 2901.98,-1409.69 3110.08,-1303.13"/>
<polygon fill="#7b8894" stroke="#7b8894" points="3111.54,-1306.31 3118.85,-1298.64 3108.35,-1300.08 3111.54,-1306.31"/>
</g>
<!-- 758c34ee00c14bf6bacdafd19d7a1a75 -->
<g id="node23" class="node">
<title>758c34ee00c14bf6bacdafd19d7a1a75</title>
<image xlink:href="/home/lukemccrae/.local/lib/python3.14/site-packages/resources/aws/database/dynamodb-table.png" width="100.8px" height="100.8px" preserveAspectRatio="xMinYMin meet" x="3120.2" y="-1528.05"/>
</g>
<!-- adb881c51a5f46a2b353c55df1f4e7da&#45;&gt;758c34ee00c14bf6bacdafd19d7a1a75 -->
<g id="edge20" class="edge">
<title>adb881c51a5f46a2b353c55df1f4e7da&#45;&gt;758c34ee00c14bf6bacdafd19d7a1a75</title>
<path fill="none" stroke="#7b8894" d="M2017.89,-1868.81C2113.66,-1832.38 2331.72,-1750.27 2517.1,-1686.65 2733.99,-1612.21 2994.24,-1531.36 3109.55,-1495.97"/>
<polygon fill="#7b8894" stroke="#7b8894" points="3110.27,-1499.41 3118.81,-1493.14 3108.22,-1492.72 3110.27,-1499.41"/>
</g>
<!-- 52c41708a5c143ffb7d9beadba4c2bbd -->
<g id="node12" class="node">
<title>52c41708a5c143ffb7d9beadba4c2bbd</title>
<text xml:space="preserve" text-anchor="middle" x="3170.6" y="-2096.25" font-family="Sans-Serif" font-size="30.00" fill="#2d3436">Mutation</text>
<text xml:space="preserve" text-anchor="middle" x="3170.6" y="-2055" font-family="Sans-Serif" font-size="30.00" fill="#2d3436">Resolver</text>
</g>
<!-- f95e6f314eb9413bacace6ff40938992&#45;&gt;52c41708a5c143ffb7d9beadba4c2bbd -->
<!-- f95e6f314eb9413bacace6ff40938992&#45;&gt;fb83c8def85547c4a83c692b57271b82 -->
<g id="edge21" class="edge">
<title>f95e6f314eb9413bacace6ff40938992&#45;&gt;fb83c8def85547c4a83c692b57271b82</title>
<path fill="none" stroke="#7b8894" d="M2017.86,-2050.97C2126.9,-1958.67 2396.83,-1729.99 2622.1,-1537.65 2800.99,-1384.9 3012.01,-1203.36 3111.78,-1117.45"/>
<polygon fill="#7b8894" stroke="#7b8894" points="3113.78,-1120.35 3119.07,-1111.18 3109.21,-1115.05 3113.78,-1120.35"/>
<text xml:space="preserve" text-anchor="middle" x="2569.6" y="-1619.72" font-family="Sans-Serif" font-size="13.00" fill="#2d3436">Read/Write</text>
</g>
<!-- f95e6f314eb9413bacace6ff40938992&#45;&gt;176519a920fa40558cc3b8827ee2e728 -->
<g id="edge22" class="edge">
<title>f95e6f314eb9413bacace6ff40938992&#45;&gt;176519a920fa40558cc3b8827ee2e728</title>
<path fill="none" stroke="#7b8894" d="M2017.84,-2076.25C2126.83,-2039.9 2396.68,-1949.71 2622.1,-1872.65 2799.61,-1811.97 3008.98,-1738.89 3109.64,-1703.66"/>
<polygon fill="#7b8894" stroke="#7b8894" points="3110.49,-1707.07 3118.77,-1700.46 3108.18,-1700.47 3110.49,-1707.07"/>
</g>
<!-- f95e6f314eb9413bacace6ff40938992&#45;&gt;809eb6f08d5145e3b1929b232cd2b3f7 -->
<g id="edge23" class="edge">
<title>f95e6f314eb9413bacace6ff40938992&#45;&gt;809eb6f08d5145e3b1929b232cd2b3f7</title>
<path fill="none" stroke="#7b8894" d="M2017.94,-2065.59C2112.03,-2015.24 2324.89,-1907.33 2517.1,-1852.65 2562.44,-1839.75 2580.1,-1859.06 2622.1,-1837.65 2848.54,-1722.19 3035.08,-1476.03 3120.07,-1350.21"/>
<polygon fill="#7b8894" stroke="#7b8894" points="3122.75,-1352.5 3125.42,-1342.25 3116.94,-1348.6 3122.75,-1352.5"/>
</g>
<!-- f95e6f314eb9413bacace6ff40938992&#45;&gt;758c34ee00c14bf6bacdafd19d7a1a75 -->
<g id="edge24" class="edge">
<title>f95e6f314eb9413bacace6ff40938992&#45;&gt;758c34ee00c14bf6bacdafd19d7a1a75</title>
<path fill="none" stroke="#7b8894" d="M2017.64,-2067.12C2111.66,-2019.47 2325,-1917.61 2517.1,-1870.65 2562.63,-1859.52 2578.1,-1876.84 2622.1,-1860.65 2822.87,-1786.75 3018.53,-1620.54 3112.23,-1533.38"/>
<polygon fill="#7b8894" stroke="#7b8894" points="3114.41,-1536.13 3119.32,-1526.75 3109.63,-1531.02 3114.41,-1536.13"/>
</g>
<!-- 6ac653ab5861422493cf05305f227f9a&#45;&gt;582b025e4ec943b09bee7dacdf427607 -->
<g id="edge28" class="edge">
<title>6ac653ab5861422493cf05305f227f9a&#45;&gt;582b025e4ec943b09bee7dacdf427607</title>
<path fill="none" stroke="#7b8894" d="M2017.92,-446.81C2208.95,-393.21 2899.91,-199.32 3109.14,-140.61"/>
<polygon fill="#7b8894" stroke="#7b8894" points="3110.06,-143.99 3118.74,-137.92 3108.17,-137.25 3110.06,-143.99"/>
<text xml:space="preserve" text-anchor="middle" x="2569.6" y="-308.65" font-family="Sans-Serif" font-size="13.00" fill="#2d3436">Checkout session</text>
</g>
<!-- 2c48ea892d734b89bc229b8f36be5734 -->
<g id="node14" class="node">
<title>2c48ea892d734b89bc229b8f36be5734</title>
<text xml:space="preserve" text-anchor="middle" x="3170.6" y="-464.25" font-family="Sans-Serif" font-size="30.00" fill="#2d3436">Create</text>
<text xml:space="preserve" text-anchor="middle" x="3170.6" y="-423" font-family="Sans-Serif" font-size="30.00" fill="#2d3436">Checkout</text>
</g>
<!-- 6ac653ab5861422493cf05305f227f9a&#45;&gt;2c48ea892d734b89bc229b8f36be5734 -->
<!-- ba264101eb7f4924bbdffd81de6f87f9 -->
<g id="node25" class="node">
<title>ba264101eb7f4924bbdffd81de6f87f9</title>
<image xlink:href="/home/lukemccrae/.local/lib/python3.14/site-packages/resources/aws/management/systems-manager-parameter-store.png" width="100.8px" height="100.8px" preserveAspectRatio="xMinYMin meet" x="3120.2" y="-913.05"/>
</g>
<!-- 6ac653ab5861422493cf05305f227f9a&#45;&gt;ba264101eb7f4924bbdffd81de6f87f9 -->
<g id="edge30" class="edge">
<title>6ac653ab5861422493cf05305f227f9a&#45;&gt;ba264101eb7f4924bbdffd81de6f87f9</title>
<path fill="none" stroke="#7b8894" d="M2017.92,-477.16C2209.04,-541.13 2900.6,-772.61 3109.46,-842.52"/>
<polygon fill="#7b8894" stroke="#7b8894" points="3108.17,-845.78 3118.76,-845.63 3110.39,-839.14 3108.17,-845.78"/>
<text xml:space="preserve" text-anchor="middle" x="2569.6" y="-680.1" font-family="Sans-Serif" font-size="13.00" fill="#2d3436">Read</text>
</g>
<!-- 8fd346ee3eab41fdb80f1724b95919ab -->
<g id="node16" class="node">
<title>8fd346ee3eab41fdb80f1724b95919ab</title>
<text xml:space="preserve" text-anchor="middle" x="3170.6" y="-669.25" font-family="Sans-Serif" font-size="30.00" fill="#2d3436">Stripe</text>
<text xml:space="preserve" text-anchor="middle" x="3170.6" y="-628" font-family="Sans-Serif" font-size="30.00" fill="#2d3436">Webhook</text>
</g>
<!-- 610087d1d331413e9d8152a7775bf9ac&#45;&gt;8fd346ee3eab41fdb80f1724b95919ab -->
<!-- 610087d1d331413e9d8152a7775bf9ac&#45;&gt;ba264101eb7f4924bbdffd81de6f87f9 -->
<g id="edge31" class="edge">
<title>610087d1d331413e9d8152a7775bf9ac&#45;&gt;ba264101eb7f4924bbdffd81de6f87f9</title>
<path fill="none" stroke="#7b8894" d="M2017.86,-677.69C2113.56,-700.73 2331.52,-751.54 2517.1,-782.65 2733.65,-818.95 2993.24,-845.87 3108.87,-857.01"/>
<polygon fill="#7b8894" stroke="#7b8894" points="3108.48,-860.49 3118.76,-857.96 3109.14,-853.52 3108.48,-860.49"/>
<text xml:space="preserve" text-anchor="middle" x="2569.6" y="-803.03" font-family="Sans-Serif" font-size="13.00" fill="#2d3436">Read</text>
</g>
<!-- 83dd9695a3a148ff98e5a44f83f6edab -->
<g id="node18" class="node">
<title>83dd9695a3a148ff98e5a44f83f6edab</title>
<text xml:space="preserve" text-anchor="middle" x="3906.6" y="-1030" font-family="Sans-Serif" font-size="30.00" fill="#2d3436">Events</text>
</g>
<!-- fb83c8def85547c4a83c692b57271b82&#45;&gt;83dd9695a3a148ff98e5a44f83f6edab -->
<!-- 6d334b2744a44e7d8c50fa5636576b5e -->
<g id="node20" class="node">
<title>6d334b2744a44e7d8c50fa5636576b5e</title>
<text xml:space="preserve" text-anchor="middle" x="3906.6" y="-1645" font-family="Sans-Serif" font-size="30.00" fill="#2d3436">Donations</text>
</g>
<!-- 176519a920fa40558cc3b8827ee2e728&#45;&gt;6d334b2744a44e7d8c50fa5636576b5e -->
<!-- d7ecba2ddaa54cb380611c6f81027506 -->
<g id="node22" class="node">
<title>d7ecba2ddaa54cb380611c6f81027506</title>
<text xml:space="preserve" text-anchor="middle" x="3906.6" y="-1235" font-family="Sans-Serif" font-size="30.00" fill="#2d3436">Tiers</text>
</g>
<!-- 809eb6f08d5145e3b1929b232cd2b3f7&#45;&gt;d7ecba2ddaa54cb380611c6f81027506 -->
<!-- 938dfd8bd16e4c50a5b604cf52ac0970 -->
<g id="node24" class="node">
<title>938dfd8bd16e4c50a5b604cf52ac0970</title>
<text xml:space="preserve" text-anchor="middle" x="3906.6" y="-1440" font-family="Sans-Serif" font-size="30.00" fill="#2d3436">Emojis</text>
</g>
<!-- 758c34ee00c14bf6bacdafd19d7a1a75&#45;&gt;938dfd8bd16e4c50a5b604cf52ac0970 -->
<!-- 806cbe7216a04c81b971fe8542c973d7 -->
<g id="node26" class="node">
<title>806cbe7216a04c81b971fe8542c973d7</title>
<text xml:space="preserve" text-anchor="middle" x="3906.6" y="-866.25" font-family="Sans-Serif" font-size="30.00" fill="#2d3436">Parameter</text>
<text xml:space="preserve" text-anchor="middle" x="3906.6" y="-825" font-family="Sans-Serif" font-size="30.00" fill="#2d3436">Store</text>
</g>
<!-- ba264101eb7f4924bbdffd81de6f87f9&#45;&gt;806cbe7216a04c81b971fe8542c973d7 -->
</g>
</svg>
